<?xml version="1.0" standalone="no"?>
<!DOCTYPE svg PUBLIC "-//W3C//DTD SVG 20010904//EN"
 "http://www.w3.org/TR/2001/REC-SVG-20010904/DTD/svg10.dtd">
<svg version="1.0" xmlns="http://www.w3.org/2000/svg"
 width="500.000000pt" height="500.000000pt" viewBox="0 0 500.000000 500.000000"
 preserveAspectRatio="xMidYMid meet">
<metadata>
Created by potrace 1.14, written by Peter Selinger 2001-2017
</metadata>
<g transform="translate(0.000000,500.000000) scale(0.100000,-0.100000)"
fill="#000000" stroke="none">
<path d="M1345 3844 c-376 -55 -665 -231 -861 -525 -84 -126 -180 -336 -162
-355 4 -3 26 10 49 29 51 44 119 77 158 77 20 0 37 -9 55 -30 24 -29 25 -34
19 -128 -9 -165 26 -234 47 -91 48 332 235 629 478 757 201 107 482 129 717
57 192 -59 296 -162 430 -423 51 -100 82 -132 126 -132 42 0 64 46 54 119 -3
31 -10 113 -13 182 -7 115 -10 130 -35 167 -70 106 -302 217 -570 273 -76 16
-147 22 -282 24 -99 2 -193 1 -210 -1z"/>
<path d="M2625 3775 c-14 -13 -25 -30 -25 -37 1 -58 35 -78 134 -78 41 0 69
-6 85 -16 52 -37 51 -5 51 -1099 l0 -1016 -24 -23 c-14 -15 -45 -28 -82 -35
-32 -7 -72 -14 -87 -17 -32 -7 -60 -44 -55 -75 2 -12 16 -31 31 -43 27 -20 41
-21 383 -24 l354 -3 0 23 c0 13 14 46 31 72 16 27 28 50 26 52 -2 3 -33 9 -67
15 -78 12 -127 32 -164 67 -59 55 -56 7 -56 1053 l0 962 34 32 c53 50 106 60
306 59 201 0 301 -19 425 -81 212 -106 403 -316 482 -532 22 -61 29 -71 31
-49 4 35 46 68 86 68 42 0 132 -71 180 -144 47 -71 75 -150 86 -245 8 -74 18
-91 54 -91 17 0 18 6 12 78 -11 116 -50 276 -92 376 -75 179 -230 373 -399
499 -148 110 -382 212 -585 253 -112 23 -128 24 -623 24 l-508 0 -24 -25z"/>
<path d="M459 2952 c-110 -70 -179 -218 -179 -385 0 -53 -2 -58 -16 -46 -8 7
-23 26 -31 43 l-16 31 -10 -30 c-5 -16 -10 -95 -11 -175 0 -129 2 -156 27
-244 27 -99 97 -260 136 -315 12 -16 21 -34 21 -39 0 -18 -37 -24 -77 -13 -20
6 -38 9 -40 7 -2 -1 31 -32 72 -67 193 -165 377 -222 526 -162 21 8 39 18 39
22 0 3 -27 23 -59 44 -159 103 -280 269 -344 472 -21 66 -49 213 -47 243 1 4
16 -34 34 -83 44 -121 114 -268 168 -352 53 -81 109 -138 237 -242 148 -120
209 -195 246 -304 20 -59 38 -75 61 -56 21 17 18 29 -27 118 -29 58 -61 102
-110 152 l-70 71 10 87 c12 94 13 219 3 295 l-7 49 -12 -34 c-7 -19 -26 -42
-42 -52 l-28 -17 -7 60 c-17 147 -87 277 -245 454 -107 121 -159 272 -146 424
3 39 2 72 -3 72 -4 0 -28 -13 -53 -28z"/>
<path d="M4516 2909 c-21 -207 -96 -337 -269 -473 -93 -72 -178 -158 -225
-228 -41 -60 -90 -163 -98 -205 -3 -18 -12 -33 -19 -33 -18 0 -55 48 -55 71 0
10 -4 20 -8 23 -18 11 -71 -277 -72 -390 l0 -52 -64 -41 c-112 -73 -246 -233
-230 -275 13 -35 48 -18 82 42 63 110 144 181 315 276 66 36 143 82 173 102
109 73 238 226 359 428 71 118 75 109 18 -39 -95 -241 -247 -412 -465 -520
-119 -58 -120 -60 -33 -102 56 -28 88 -34 174 -34 94 1 172 20 276 70 72 34
195 107 195 115 0 2 -21 1 -47 -1 -32 -3 -54 0 -68 10 -18 14 -17 17 32 71 63
68 128 166 178 266 73 146 105 271 105 412 l0 91 -34 -39 c-19 -21 -36 -37
-39 -34 -3 3 -1 30 5 60 14 76 4 214 -20 282 -25 71 -70 137 -120 177 l-39 30
-7 -60z"/>
<path d="M1286 2231 c8 -73 -13 -150 -57 -211 -50 -69 -88 -159 -91 -217 -3
-57 -10 -63 -40 -36 -19 17 -19 16 -14 -7 2 -14 7 -51 11 -83 3 -32 12 -74 20
-93 l15 -35 55 58 c64 68 117 168 144 273 19 73 20 74 20 30 1 -55 -22 -149
-51 -208 -11 -24 -45 -70 -74 -101 -29 -32 -51 -61 -47 -65 3 -3 28 -6 55 -6
73 0 155 46 220 124 l26 32 -30 -4 c-28 -4 -30 -2 -23 14 5 11 19 50 32 87 28
79 34 212 13 287 -12 43 -13 44 -23 20 -10 -25 -10 -25 -19 10 -18 67 -62 144
-97 167 -19 13 -38 23 -43 23 -5 0 -6 -26 -2 -59z"/>
<path d="M3212 2273 c-9 -3 4 -21 35 -52 60 -57 82 -103 95 -195 13 -93 41
-171 78 -218 31 -38 29 -42 -15 -39 -26 2 74 -92 127 -120 l37 -19 7 46 c14
94 -18 230 -82 343 -21 39 -22 42 -4 26 34 -30 77 -107 100 -175 17 -50 21
-83 18 -142 -2 -43 1 -78 5 -78 25 0 73 50 95 99 19 41 27 77 29 136 4 70 3
77 -9 56 -19 -34 -30 -26 -55 40 -35 94 -98 181 -166 230 -48 35 -57 36 -49 7
5 -21 4 -20 -29 5 -19 14 -52 33 -72 42 -35 14 -118 19 -145 8z"/>
<path d="M1768 2224 c-54 -29 -46 -97 14 -134 30 -18 48 -20 183 -18 241 3
251 -8 243 -241 -6 -157 -22 -206 -90 -267 -50 -45 -158 -97 -263 -126 -69
-19 -105 -22 -255 -22 -148 1 -187 4 -254 22 -44 12 -82 20 -84 17 -3 -3 5
-34 17 -70 13 -36 21 -72 17 -80 -11 -31 28 -53 109 -60 131 -13 399 0 490 23
354 90 685 289 685 411 0 11 -14 41 -32 66 -28 39 -32 54 -36 128 -6 111 9
175 53 233 43 56 45 101 5 121 -40 20 -765 18 -802 -3z"/>
</g>
</svg>
